<svg t="1704481956444" class="icon" viewBox="0 0 1024 1024" version="1.1" xmlns="http://www.w3.org/2000/svg" p-id="1540" width="200" height="200"><path d="M816.064 828.352c58.208-6.08 104.032-57.856 104.032-121.312a126.72 126.72 0 0 0-13.28-56.8 24.32 24.32 0 0 1-1.824-4.864 23.936 23.936 0 0 1-2.208-3.584c-27.36-54.688-65.248-73.376-120.064-60a24.384 24.384 0 1 1-11.552-47.392c71.104-17.312 127.968 6.464 165.664 68.32A124.8 124.8 0 0 0 975.168 512c0-44.672-22.944-84.928-59.04-106.368a24.384 24.384 0 0 1-9.376-31.872 126.72 126.72 0 0 0 13.28-56.8c0-64.576-47.456-117.056-107.168-121.6-12.704 69.184-56.256 111.168-127.36 121.568a24.384 24.384 0 1 1-7.04-48.256c55.808-8.16 83.968-39.68 88.832-100.608l0.032-0.288c-1.76-66.496-53.024-119.008-115.488-119.008-63.552 0-115.552 54.336-115.552 121.92v682.656c0 67.552 51.968 121.92 115.552 121.92s115.552-54.336 115.552-121.92c0-4.448 1.088-8.576 3.008-12.128a24.288 24.288 0 0 1-3.072-10.08c-4.864-60.928-33.024-92.48-88.832-100.608a24.384 24.384 0 0 1 7.04-48.256c78.816 11.52 123.744 61.856 130.4 144.992l0.064 1.12z m-606.912 0.128l0.064-1.248c6.656-83.136 51.584-133.472 130.4-144.992a24.384 24.384 0 1 1 7.04 48.256c-55.808 8.16-83.968 39.68-88.832 100.608a24.192 24.192 0 0 1-3.68 11.072 24.096 24.096 0 0 1 2.4 10.528c0 68.16 51.968 122.496 115.552 122.496s115.552-54.336 115.552-121.92V170.624c0-67.552-51.968-121.92-115.552-121.92-61.024 0-111.392 50.112-115.296 113.888 0.544 1.728 0.896 3.52 1.056 5.408 4.864 60.928 33.024 92.48 88.832 100.608a24.384 24.384 0 0 1-7.04 48.256c-71.136-10.4-114.656-52.416-127.36-121.632-60.256 3.904-108.352 56.672-108.352 121.664 0 20.096 4.608 39.456 13.28 56.8 0.8 1.6 1.408 3.2 1.824 4.864a29.888 29.888 0 0 1 1.952 3.232c27.36 54.688 65.248 73.376 120.064 60a24.384 24.384 0 1 1 11.552 47.392c-70.976 17.28-127.744-6.368-165.44-67.936a124.704 124.704 0 0 0-38.304 90.688c0 44.672 22.944 84.928 59.04 106.368a24.384 24.384 0 0 1 9.376 31.872 126.72 126.72 0 0 0-13.28 56.8c0 63.872 46.464 115.936 105.28 121.44zM512 81.184C540.896 32.544 592.672 0 651.936 0c83.104 0 151.424 63.904 162.688 146.592 86.272 5.376 154.272 79.808 154.272 170.368 0 20.352-3.456 40.256-10.048 58.912 40.512 31.84 65.184 81.792 65.184 136.128s-24.672 104.32-65.184 136.128c6.624 18.688 10.048 38.56 10.048 58.912 0 90.528-67.968 164.96-154.272 170.368C803.392 960.096 735.04 1024 651.936 1024c-59.264 0-111.04-32.512-139.936-81.184-28.896 48.64-80.672 81.184-139.936 81.184-83.104 0-151.424-63.904-162.688-146.592-86.272-5.376-154.272-79.808-154.272-170.368 0-20.352 3.456-40.256 10.048-58.912C24.64 616.32-0.032 566.336-0.032 512s24.672-104.32 65.184-136.128a176.096 176.096 0 0 1-10.048-58.912c0-90.528 67.968-164.96 154.272-170.368C220.608 63.904 288.96 0 372.064 0c59.264 0 111.04 32.512 139.936 81.184z" p-id="1541" fill="#2c2c2c"></path></svg>